<svg width="50" height="46" viewBox="0 0 50 50" fill="none" xmlns="http://www.w3.org/2000/svg">
<g clip-path="url(#clip0_102_638)">
<!-- <path d="M62.2091 31.2146H58.5845V12.2231H64.5694C65.9555 12.2231 67.2199 12.4279 68.3626 12.8376C69.5053 13.2472 70.4138 13.8989 71.0881 14.7926C71.7812 15.6863 72.1278 16.8593 72.1278 18.3116C72.1278 19.7452 71.7531 20.9276 71.0038 21.8585C70.2733 22.7894 69.3086 23.4784 68.1097 23.9252C66.9296 24.3721 65.6652 24.5955 64.3165 24.5955H62.2091V31.2146ZM64.457 15.2394H62.2091V21.6071H64.5132C65.5997 21.6071 66.48 21.3651 67.1544 20.881C67.8288 20.3783 68.2034 19.5963 68.2783 18.535C68.2783 17.3061 67.9411 16.4496 67.2668 15.9656C66.5924 15.4815 65.6559 15.2394 64.457 15.2394V15.2394Z" fill="#524B48"/> -->
<!-- <path d="M75.6061 15.7421C75.0441 15.7421 74.5664 15.5466 74.1731 15.1556C73.7797 14.7646 73.583 14.2806 73.583 13.7033C73.583 13.1261 73.7797 12.6421 74.1731 12.2511C74.5664 11.8601 75.0441 11.6646 75.6061 11.6646C76.1868 11.6646 76.6738 11.8601 77.0672 12.2511C77.4793 12.6421 77.6853 13.1261 77.6853 13.7033C77.6853 14.2806 77.4793 14.7646 77.0672 15.1556C76.6738 15.5466 76.1868 15.7421 75.6061 15.7421ZM77.4605 31.2145H73.8078V17.6692H77.4605V31.2145Z" fill="#524B48"/> -->
<!-- <path d="M83.6488 31.2144H79.9961V17.669H82.3844L83.0025 19.1213C83.8826 18.5069 84.7917 18.0414 85.728 17.7249C86.6834 17.3897 87.5263 17.2222 88.2569 17.2222C89.4932 17.2222 90.4485 17.4642 91.1229 17.9483C91.7972 18.4324 92.2658 19.0934 92.5278 19.9312C92.7897 20.7505 92.9211 21.6815 92.9211 22.7241V31.2144H89.2684V22.8917C89.2684 22.0352 89.0907 21.3835 88.7345 20.9367C88.3783 20.4712 87.9007 20.2385 87.3015 20.2385C86.59 20.2385 85.9156 20.4247 85.2785 20.797C84.6603 21.1508 84.1173 21.4952 83.6488 21.8304V31.2144Z" fill="#524B48"/> -->
<!-- <path d="M108.713 23.6179L109.022 20.825H115.991V30.209C115.26 30.6 114.379 30.9352 113.349 31.2145C112.319 31.4751 111.214 31.6055 110.034 31.6055C108.048 31.6055 106.343 31.1679 104.92 30.2928C103.515 29.4177 102.428 28.2354 101.661 26.7459C100.911 25.2564 100.537 23.6086 100.537 21.8025C100.537 20.3502 100.78 19.019 101.267 17.8087C101.754 16.5985 102.447 15.5465 103.346 14.6528C104.246 13.7591 105.294 13.0702 106.493 12.5861C107.711 12.0834 109.04 11.832 110.483 11.832C110.858 11.832 111.344 11.8786 111.944 11.9717C112.563 12.0462 113.199 12.1765 113.855 12.3627C114.529 12.5302 115.148 12.763 115.71 13.0609L114.558 15.6582C114.014 15.4907 113.536 15.351 113.125 15.2393C112.731 15.1276 112.338 15.0438 111.944 14.988C111.569 14.9135 111.102 14.8762 110.54 14.8762C109.416 14.8762 108.385 15.1369 107.449 15.6582C106.512 16.161 105.753 16.9243 105.173 17.9484C104.611 18.9538 104.33 20.2292 104.33 21.7746C104.33 23.1524 104.564 24.3533 105.032 25.3774C105.5 26.4015 106.156 27.1927 106.999 27.7513C107.86 28.2912 108.844 28.5612 109.949 28.5612C110.568 28.5612 111.102 28.5333 111.551 28.4775C112.001 28.403 112.394 28.3285 112.731 28.254V23.6179H108.713Z" fill="#524B48"/> -->
<!-- <path d="M130.458 25.5172H121.27C121.438 26.4109 121.822 27.1277 122.422 27.6677C123.04 28.189 124.023 28.4497 125.372 28.4497C126.177 28.4497 126.889 28.3379 127.507 28.1145C128.126 27.8911 128.734 27.6025 129.334 27.2487L130.402 29.874C129.764 30.3581 129.043 30.7584 128.238 31.0749C127.451 31.3914 126.468 31.5497 125.288 31.5497C122.646 31.5497 120.67 30.9074 119.359 29.6227C118.047 28.3379 117.392 26.6156 117.392 24.4559C117.392 23.0036 117.663 21.7468 118.207 20.6855C118.769 19.6056 119.565 18.7771 120.595 18.1999C121.625 17.6041 122.843 17.3062 124.248 17.3062C125.671 17.3062 126.842 17.632 127.76 18.2837C128.678 18.9353 129.352 19.8011 129.783 20.881C130.233 21.9423 130.458 23.1153 130.458 24.4V25.5172ZM121.298 23.0874H127.002C126.814 22.175 126.477 21.5047 125.99 21.0765C125.503 20.6297 124.894 20.4062 124.164 20.4062C123.414 20.4062 122.787 20.6389 122.281 21.1044C121.775 21.5513 121.447 22.2123 121.298 23.0874V23.0874Z" fill="#524B48"/> -->
<!-- <path d="M135.787 31.2144H132.134V17.669H134.522L135.14 19.1213C136.02 18.5069 136.929 18.0414 137.866 17.7249C138.821 17.3897 139.664 17.2222 140.395 17.2222C141.631 17.2222 142.586 17.4642 143.261 17.9483C143.935 18.4324 144.403 19.0934 144.666 19.9312C144.928 20.7505 145.059 21.6815 145.059 22.7241V31.2144H141.406V22.8917C141.406 22.0352 141.228 21.3835 140.872 20.9367C140.516 20.4712 140.038 20.2385 139.439 20.2385C138.727 20.2385 138.053 20.4247 137.416 20.797C136.798 21.1508 136.254 21.4952 135.787 21.8304V31.2144Z" fill="#524B48"/> -->
<!-- <path d="M159.709 25.5172H150.521C150.689 26.4109 151.073 27.1277 151.673 27.6677C152.291 28.189 153.274 28.4497 154.623 28.4497C155.429 28.4497 156.14 28.3379 156.758 28.1145C157.377 27.8911 157.986 27.6025 158.585 27.2487L159.652 29.874C159.016 30.3581 158.295 30.7584 157.489 31.0749C156.702 31.3914 155.719 31.5497 154.539 31.5497C151.897 31.5497 149.921 30.9074 148.61 29.6227C147.299 28.3379 146.643 26.6156 146.643 24.4559C146.643 23.0036 146.915 21.7468 147.458 20.6855C148.02 19.6056 148.817 18.7771 149.846 18.1999C150.877 17.6041 152.094 17.3062 153.499 17.3062C154.923 17.3062 156.094 17.632 157.011 18.2837C157.929 18.9353 158.604 19.8011 159.034 20.881C159.484 21.9423 159.709 23.1153 159.709 24.4V25.5172ZM150.549 23.0874H156.253C156.066 22.175 155.729 21.5047 155.241 21.0765C154.754 20.6297 154.145 20.4062 153.415 20.4062C152.666 20.4062 152.038 20.6389 151.532 21.1044C151.026 21.5513 150.699 22.2123 150.549 23.0874V23.0874Z" fill="#524B48"/> -->
<!-- <path d="M165.038 31.2143H161.386V17.6689H163.296L164.505 19.9312C164.879 19.596 165.338 19.2609 165.881 18.9257C166.424 18.5719 166.977 18.2741 167.539 18.032C168.119 17.7899 168.653 17.6689 169.141 17.6689L169.871 20.5735C169.253 20.5735 168.485 20.7969 167.567 21.2438C166.668 21.6907 165.825 22.2585 165.038 22.9474V31.2143Z" fill="#524B48"/> -->
<!-- <path d="M172.461 21.5513L171.478 18.535C171.834 18.2929 172.321 18.0882 172.939 17.9206C173.557 17.7344 174.184 17.5854 174.822 17.4737C175.477 17.362 175.993 17.3062 176.367 17.3062C177.454 17.3062 178.446 17.5203 179.345 17.9485C180.244 18.3767 180.956 18.9726 181.481 19.7359C182.024 20.4807 182.296 21.3371 182.296 22.3054V31.2146H179.907L179.289 29.7623C178.783 30.2837 178.221 30.7119 177.603 31.047C177.004 31.3822 176.367 31.5497 175.693 31.5497C174.026 31.5497 172.789 31.1494 171.984 30.3488C171.178 29.5296 170.775 28.4683 170.775 27.1649C170.775 25.7685 171.253 24.6979 172.208 23.9532C173.164 23.2084 174.409 22.836 175.945 22.836H178.615V22.8081C178.596 22.1378 178.39 21.6164 177.997 21.2441C177.622 20.8531 177.097 20.6576 176.423 20.6576C175.786 20.6576 175.093 20.7506 174.344 20.9369C173.594 21.1044 172.967 21.3092 172.461 21.5513V21.5513ZM173.894 27.1649C173.894 27.5559 174.054 27.9097 174.372 28.2262C174.69 28.5242 175.112 28.6731 175.636 28.6731C176.142 28.6731 176.648 28.5614 177.154 28.3379C177.678 28.1145 178.174 27.7794 178.643 27.3325V25.2658H175.889C175.252 25.2658 174.756 25.4613 174.4 25.8523C174.063 26.2433 173.894 26.6809 173.894 27.1649V27.1649Z" fill="#524B48"/> -->
<!-- <path d="M191.369 17.6969L192.493 20.4898H188.897V26.2431C188.897 26.9506 189.065 27.5371 189.403 28.0026C189.74 28.4494 190.236 28.6728 190.892 28.6728C191.379 28.6728 191.875 28.5518 192.381 28.3098L193.449 30.9351C193.149 31.1771 192.718 31.3726 192.156 31.5216C191.612 31.6891 191.126 31.7729 190.695 31.7729C189.009 31.7729 187.679 31.354 186.705 30.5161C185.75 29.6596 185.272 28.4494 185.272 26.8854V20.4898H183.446V17.6969H185.272V14.4851L188.897 13.8428V17.6969H191.369Z" fill="#524B48"/> -->
<!-- <path d="M201.284 31.5497C199.823 31.5497 198.54 31.2612 197.435 30.6839C196.348 30.1067 195.505 29.2875 194.906 28.2262C194.306 27.1463 194.007 25.8895 194.007 24.4559C194.007 23.0036 194.306 21.7468 194.906 20.6855C195.505 19.6056 196.348 18.7771 197.435 18.1999C198.54 17.6041 199.823 17.3062 201.284 17.3062C202.764 17.3062 204.047 17.5947 205.134 18.1719C206.22 18.7492 207.063 19.5684 207.663 20.6297C208.262 21.6909 208.562 22.9477 208.562 24.4C208.562 25.8336 208.262 27.0904 207.663 28.1704C207.063 29.2503 206.22 30.0882 205.134 30.6839C204.047 31.2612 202.764 31.5497 201.284 31.5497ZM201.284 28.4497C202.314 28.4497 203.157 28.0679 203.813 27.3046C204.468 26.5226 204.797 25.5544 204.797 24.4C204.797 23.227 204.468 22.2682 203.813 21.5234C203.157 20.7786 202.314 20.4062 201.284 20.4062C200.254 20.4062 199.411 20.7972 198.755 21.5792C198.099 22.3426 197.772 23.3015 197.772 24.4559C197.772 25.6289 198.099 26.5877 198.755 27.3325C199.411 28.0773 200.254 28.4497 201.284 28.4497Z" fill="#524B48"/> -->
<!-- <path d="M213.91 31.2143H210.257V17.6689H212.168L213.376 19.9312C213.751 19.596 214.21 19.2609 214.753 18.9257C215.296 18.5719 215.849 18.2741 216.411 18.032C216.992 17.7899 217.526 17.6689 218.012 17.6689L218.743 20.5735C218.125 20.5735 217.357 20.7969 216.439 21.2438C215.54 21.6907 214.697 22.2585 213.91 22.9474V31.2143Z" fill="#524B48"/> -->
<path d="M45.9995 22L31.9995 22L31.9995 -9.29367e-07L45.9995 -9.29367e-07L45.9995 22Z" fill="#26C4A6"/>
<path d="M45.9995 46H31.9995L31.9995 23.5L45.9995 23.5L45.9995 46Z" fill="#55D5BC"/>
<path d="M30.3735 14.2061L15.9302 14.2061L15.9302 0.00018498L30.3735 0.00018498L30.3735 14.2061Z" fill="#55D5BC"/>
<path d="M30.3735 46H15.9301L15.9301 15.7092L30.3735 15.7092L30.3735 46Z" fill="#26C4A6"/>
<path d="M14.4429 31.1929L-0.000467893 31.1929L-0.000467893 0.00010756L14.4429 0.00010756L14.4429 31.1929Z" fill="#26C4A6"/>
<path d="M14.4429 46H-0.000549859L-0.000549859 32.6961H14.4429L14.4429 46Z" fill="#55D5BC"/>
</g>
<defs>
<clipPath id="clip0_102_638">
<rect width="50" height="50" fill="white"/>
</clipPath>
</defs>
</svg>
